<svg xmlns="http://www.w3.org/2000/svg" width="190" height="35" viewBox="0 0 190 35"><defs><style>.a{fill:#fd475d;}</style></defs><path class="a" d="M-337,2.491h-7.319A5.564,5.564,0,0,1-350-2.68V-27.306a5.564,5.564,0,0,1,5.88-5.2h9.035a.8.8,0,0,1,.624.3l.364.5.052.04,7.567,9.827a2.092,2.092,0,0,1,.4,1.656,2.2,2.2,0,0,1-.952,1.452c-.056.036-.113.072-.172.1a2.751,2.751,0,0,1-3.492-.608l-6.7-8.743a1.057,1.057,0,0,0-.832-.4h-5.407a1.662,1.662,0,0,0-1.208.4,1.664,1.664,0,0,0-.569,1.139V-3.156a1.652,1.652,0,0,0,1.756,1.52h5.868l.355-.445a.7.7,0,0,1,.1-.108l23.6-29.645a1.826,1.826,0,0,1,1.432-.671h7.343a5.571,5.571,0,0,1,5.855,5.171V-2.713a5.616,5.616,0,0,1-5.879,5.2h-8.635a.8.8,0,0,1-.624-.3l-.04-.056a.378.378,0,0,1-.056-.064l-7.847-10.2a2.111,2.111,0,0,1-.4-1.66,2.219,2.219,0,0,1,.956-1.448c.059-.036.112-.072.172-.1a2.708,2.708,0,0,1,3.476.608l6.679,8.7a1.039,1.039,0,0,0,.828.4h4.995a1.657,1.657,0,0,0,1.211-.4,1.658,1.658,0,0,0,.566-1.142v-23.7a1.669,1.669,0,0,0-1.756-1.52h-4.964a1.034,1.034,0,0,0-.8.4L-333.006-.625a.654.654,0,0,1-.087.144l-1.448,1.82a3.143,3.143,0,0,1-2.432,1.152Zm82.516-4a9.5,9.5,0,0,1-4.8-1.308,5.1,5.1,0,0,1-2.308-4.632v-9.535a4.942,4.942,0,0,1,2.4-4.571,10.7,10.7,0,0,1,5.475-1.288,8.959,8.959,0,0,1,5.14,1.239l.108.08A5.2,5.2,0,0,1-246.539-17v.876c0,2.052-.448,3.472-1.372,4.336l-.1.08a7.576,7.576,0,0,1-4.36,1.436l-4.84.488v2.716c0,.372,0,1.36,2.888,1.367.8,0,3.424-.079,3.424-1.064V-7.924c0-.4.16-1.724,2.191-1.724s2.192,1.324,2.192,1.724v.863c0,2.533-1.312,5.552-7.567,5.552Zm-2.728-15.8v3.327l4.568-.491h.057a2.6,2.6,0,0,0,1.452-.432,1.944,1.944,0,0,0,.236-1.136v-1.268c0-.336,0-1.363-3.155-1.363S-257.21-17.643-257.21-17.307ZM-192.66-2.8a5.109,5.109,0,0,1-2.28-4.651v-9.531a5.061,5.061,0,0,1,2.208-4.54,11.13,11.13,0,0,1,10.431-.036,5.1,5.1,0,0,1,2.283,4.612v9.571a5.058,5.058,0,0,1-2.208,4.528,9.486,9.486,0,0,1-4.823,1.327h-.464q-.194.008-.387.008A9.44,9.44,0,0,1-192.66-2.8Zm2.067-14.506V-7.068c0,.336,0,1.367,3.088,1.367s3.088-1.031,3.088-1.367V-17.307c0-.32,0-1.363-3.088-1.363S-190.593-17.643-190.593-17.307ZM-209.615-3.245V-16.983a5.467,5.467,0,0,1,1.748-4.448,6.829,6.829,0,0,1,4.459-1.408c3.923,0,6.107,2.056,6.119,5.8v1.268c0,.4-.156,1.724-2.188,1.724s-2.192-1.324-2.192-1.724v-1.532c0-.692-.132-1.363-1.78-1.363s-1.784.671-1.784,1.363V-3.245c0,.4-.16,1.728-2.191,1.728S-209.615-2.845-209.615-3.245Zm-12.723,1.724c-3.443,0-5.727-1-6.747-2.956a6.512,6.512,0,0,1-.624-2.959v-.9a1.564,1.564,0,0,1,.8-1.475l.136-.06a3.247,3.247,0,0,1,1.336-.2c1.988,0,2.092,1.483,2.092,1.784v1.383a.776.776,0,0,0,.439.8,6.125,6.125,0,0,0,2.6.412c1.2,0,3.144-.144,3.144-1.124V-8.444a.716.716,0,0,0-.28-.64,6.491,6.491,0,0,0-2.031-.8l-2.668-.679a8.006,8.006,0,0,1-3.872-1.813l-.108-.1c-.724-.824-1.076-2.232-1.076-4.307v-.368a5.059,5.059,0,0,1,2.132-4.4,8.649,8.649,0,0,1,4.944-1.284c5.955,0,7.219,3.152,7.219,5.8v1.076c0,.392-.1,1.663-2.175,1.663s-2.176-1.46-2.176-1.755v-1.2c0-.383,0-1.4-2.859-1.4a4.835,4.835,0,0,0-2.272.456.8.8,0,0,0-.464.776v.828a2.655,2.655,0,0,0,.22,1.388,2.422,2.422,0,0,0,1.143.488l.1.02,2.6.677c3.584.943,4.536,1.707,4.936,2.264a6.039,6.039,0,0,1,1.032,3.671v1.052a4.7,4.7,0,0,1-2.3,4.316,10.258,10.258,0,0,1-4.8,1.2Zm59.8-.151c-.815,0-1.516-.564-2.08-1.672a6.433,6.433,0,0,1-.676-2.944V-26.782c0-.4.157-1.724,2.188-1.724s2.192,1.328,2.192,1.728v20.2a2.755,2.755,0,0,0,.328,1.336c.568,1.028.568,1.068.588,1.376a2.021,2.021,0,0,1-.987,1.6,2.656,2.656,0,0,1-1.432.6Zm-9.706,0c-.816,0-1.516-.564-2.08-1.672a6.484,6.484,0,0,1-.68-2.944V-26.782c0-.4.16-1.724,2.192-1.724s2.191,1.328,2.191,1.728v20.2a2.806,2.806,0,0,0,.324,1.352c.548,1.028.572,1.067.572,1.36a2.021,2.021,0,0,1-.987,1.6,2.656,2.656,0,0,1-1.432.6Zm-65.3,0c-.815,0-1.516-.564-2.075-1.672a6.389,6.389,0,0,1-.68-2.944V-18.2h-1.4c-.276,0-1.6-.1-1.6-2.092s1.332-2.088,1.6-2.088h1.4v-2.564c0-.4.157-1.724,2.188-1.724s2.192,1.324,2.192,1.724v2.564h2.139c.268,0,1.6.128,1.6,2.119s-1.332,2.093-1.6,2.093h-2.139v11.6a2.753,2.753,0,0,0,.328,1.336c.548,1.028.568,1.068.568,1.36a2.024,2.024,0,0,1-.988,1.6,2.652,2.652,0,0,1-1.431.6Zm-30.7,0c-.82,0-1.52-.564-2.08-1.672a6.455,6.455,0,0,1-.679-2.939V-26.778c0-.4.159-1.724,2.191-1.724s2.191,1.324,2.191,1.724v20.2a2.766,2.766,0,0,0,.324,1.347c.54,1.013.572,1.072.572,1.364a2.022,2.022,0,0,1-.988,1.6,2.651,2.651,0,0,1-1.432.6Zm-15.4-3.152-12.707-8.292a1.931,1.931,0,0,1-.9-1.261,1.932,1.932,0,0,1,.315-1.518,2.063,2.063,0,0,1,.6-.564l12.695-8.283a2.542,2.542,0,0,1,2.907.156,1.957,1.957,0,0,1,.733,1.512V-6.508a1.945,1.945,0,0,1-.736,1.527,2.476,2.476,0,0,1-1.56.552A2.475,2.475,0,0,1-283.647-4.824Zm.228-16.322-9.619,6.175a.272.272,0,0,0-.13.232.272.272,0,0,0,.13.232l9.619,6.151a.286.286,0,0,0,.285.011.286.286,0,0,0,.15-.243V-20.914a.283.283,0,0,0-.15-.243.28.28,0,0,0-.133-.034A.284.284,0,0,0-283.419-21.146Z" transform="translate(350 32.509)"/></svg>